<svg width="65" height="33" viewBox="0 0 65 33" fill="none" xmlns="http://www.w3.org/2000/svg">
<g clip-path="url(#clip0_140_28187)">
<path d="M7.59386 19.2517C7.59386 18.6793 7.13135 18.2168 6.55899 18.2168H3.30986C2.7375 18.2168 2.27499 18.6793 2.27499 19.2517C2.27499 19.824 2.7375 20.2865 3.30986 20.2865H6.55899C7.13135 20.2865 7.59386 19.824 7.59386 19.2517Z" fill="white"/>
<path d="M3.52087 8.27872H8.43504C9.0074 8.27872 9.46991 7.81621 9.46991 7.24385C9.46991 6.67149 9.0074 6.20898 8.43504 6.20898H3.52087C2.94852 6.20898 2.48601 6.67149 2.48601 7.24385C2.48601 7.81621 2.94852 8.27872 3.52087 8.27872Z" fill="white"/>
<path d="M6.06177 13.0424C6.06177 12.4701 5.59926 12.0076 5.02691 12.0076H1.03487C0.46251 12.0076 0 12.4701 0 13.0424C0 13.6148 0.46251 14.0773 1.03487 14.0773H5.02691C5.59926 14.0773 6.06177 13.6148 6.06177 13.0424Z" fill="white"/>
<path d="M54.027 30.2248C52.0873 30.2248 50.509 28.6465 50.509 26.7068C50.509 24.7672 52.0873 23.1888 54.027 23.1888C55.9666 23.1888 57.545 24.7672 57.545 26.7068C57.545 28.6465 55.9666 30.2248 54.027 30.2248ZM13.2481 30.2248C11.3084 30.2248 9.7301 28.6465 9.7301 26.7068C9.7301 24.7672 11.3084 23.1888 13.2481 23.1888C15.1877 23.1888 16.766 24.7672 16.766 26.7068C16.766 28.6465 15.1877 30.2248 13.2481 30.2248ZM47.6097 4.96885H53.2003C54.4201 4.96885 56.0389 5.30128 56.8281 6.88248C57.2068 7.63984 58.363 10.3166 59.0857 12.0077H47.6097V4.96885ZM64.7717 16.5374L61.5486 12.5078C61.1843 11.6492 59.2273 7.05303 58.6781 5.95457C57.6924 3.98312 55.747 2.89911 53.1974 2.89911H47.6068V1.03462C47.6068 0.462266 47.1443 -0.000244141 46.5719 -0.000244141H5.79588C5.22352 -0.000244141 4.76101 0.462266 4.76101 1.03462C4.76101 1.60698 5.22352 2.06949 5.79588 2.06949H45.5399V13.0396C45.5399 13.612 46.0024 14.0745 46.5748 14.0745H60.031C60.0685 14.0745 60.1061 14.0658 60.1437 14.063L62.9274 17.5433V21.6062V25.6691H59.5164C59.0308 23.079 56.7558 21.1133 54.027 21.1133C51.2982 21.1133 49.0232 23.079 48.5376 25.6691H18.7375C18.2518 23.079 15.9769 21.1133 13.2481 21.1133C10.5193 21.1133 8.24718 23.079 7.75865 25.6691H5.38251C4.81015 25.6691 4.34764 26.1316 4.34764 26.7039C4.34764 27.2763 4.81015 27.7388 5.38251 27.7388H7.75865C8.24718 30.3288 10.5193 32.2945 13.2481 32.2945C15.9769 32.2945 18.2518 30.3288 18.7375 27.7388H48.5376C49.0261 30.3288 51.2982 32.2945 54.027 32.2945C56.7558 32.2945 59.0279 30.3288 59.5164 27.7388H63.9652C64.5375 27.7388 65 27.2763 65 26.7039V17.182C65 16.9479 64.9191 16.7195 64.7746 16.5345" fill="white"/>
<path d="M24.5828 17.2283C22.5654 17.2283 21.1076 15.8147 21.1076 13.9004C21.1076 13.0464 21.7556 10.1455 22.0206 9.24727C22.5507 7.46552 24.1705 6.18444 26.0553 6.18444C28.0726 6.18444 29.5304 7.59805 29.5304 9.51232C29.5304 10.3664 28.8825 13.2672 28.6175 14.1655C28.0874 15.9472 26.4676 17.2283 24.5828 17.2283ZM24.8331 14.9165C25.6283 14.9165 26.1731 14.4453 26.394 13.7532C26.6149 13.0464 27.2039 10.3517 27.2039 9.80683C27.2039 9.01167 26.6296 8.49629 25.805 8.49629C25.0098 8.49629 24.465 8.96749 24.2441 9.65957C24.0232 10.3664 23.4342 13.0611 23.4342 13.6059C23.4342 14.4011 24.0085 14.9165 24.8331 14.9165Z" fill="white"/>
<path d="M32.6331 17.3313C32.1546 17.3313 31.7622 17.242 31.4559 17.0633C31.1496 16.8783 30.9199 16.6135 30.7668 16.2689C30.62 15.918 30.5467 15.4905 30.5467 14.9864H29.8384L30.0107 14.1537H30.6041C30.6105 14.1027 30.6168 14.0484 30.6232 13.991C30.636 13.9336 30.6487 13.873 30.6615 13.8092C30.6806 13.739 30.6966 13.6752 30.7094 13.6177H30.1255L30.3074 12.7946H30.9391C31.1305 12.2523 31.3698 11.796 31.6569 11.426C31.9504 11.0559 32.2822 10.7751 32.6523 10.5837C33.0287 10.3923 33.4307 10.2966 33.8582 10.2966C34.1964 10.2966 34.4899 10.338 34.7388 10.421C34.9876 10.4976 35.2301 10.6156 35.4662 10.7751L34.8823 11.8184C34.6845 11.7099 34.5091 11.6238 34.3559 11.56C34.2028 11.4898 34.0337 11.4547 33.8487 11.4547C33.6509 11.4547 33.4626 11.5089 33.284 11.6174C33.1053 11.7195 32.9394 11.8694 32.7863 12.0672C32.6395 12.265 32.5087 12.5075 32.3939 12.7946H34.0209L33.8391 13.6177H32.1546C32.1354 13.6815 32.1195 13.7422 32.1067 13.7996C32.094 13.857 32.0812 13.9144 32.0685 13.9719C32.0621 14.0293 32.0525 14.0899 32.0397 14.1537H33.4371L33.2648 14.9864H31.9536C31.9536 15.2352 31.9823 15.4458 32.0397 15.6181C32.1035 15.784 32.2024 15.9116 32.3364 16.0009C32.4704 16.0839 32.6427 16.1254 32.8533 16.1254C33.083 16.1254 33.3063 16.0998 33.5233 16.0488C33.7402 15.9914 33.9571 15.918 34.1741 15.8286V17.0346C33.9827 17.1303 33.7562 17.2037 33.4945 17.2547C33.2329 17.3058 32.9458 17.3313 32.6331 17.3313Z" fill="white"/>
</g>
<defs>
<clipPath id="clip0_140_28187">
<rect width="65" height="32.2948" fill="white"/>
</clipPath>
</defs>
</svg>
