<?xml version="1.0" encoding="utf-8"?>
<!-- Generator: Adobe Illustrator 26.4.1, SVG Export Plug-In . SVG Version: 6.00 Build 0)  -->
<svg version="1.1" id="Camada_1" xmlns="http://www.w3.org/2000/svg" xmlns:xlink="http://www.w3.org/1999/xlink" x="0px" y="0px"
	 width="95px" height="45.7px" viewBox="0 0 95 45.7" style="enable-background:new 0 0 95 45.7;" xml:space="preserve">
<style type="text/css">
	.st0{filter:url(#Adobe_OpacityMaskFilter);}
	.st1{fill-rule:evenodd;clip-rule:evenodd;fill:#FFFFFF;}
	.st2{mask:url(#b_00000006709118890419154610000011339796289532527548_);fill:#FFFFFF;}
</style>
<defs>
	<filter id="Adobe_OpacityMaskFilter" filterUnits="userSpaceOnUse" x="2.4" y="1.9" width="90.3" height="41.9">
		<feColorMatrix  type="matrix" values="1 0 0 0 0  0 1 0 0 0  0 0 1 0 0  0 0 0 1 0"/>
	</filter>
</defs>
<mask maskUnits="userSpaceOnUse" x="2.4" y="1.9" width="90.3" height="41.9" id="b_00000006709118890419154610000011339796289532527548_">
	<g class="st0">
		<path id="a_00000011026518590205884750000007424432039032958346_" class="st1" d="M-2.8-27.5H97.9V73.3H-2.8V-27.5z"/>
	</g>
</mask>
<path id="logo" class="st2" d="M75.9,4.9L64.7,16.1L54.5,5.9c-3.8-3.8-10-3.8-13.9,0l-0.1,0.1L30.4,16.1L19.2,4.9
	c-3.8-3.9-10-4-13.9-0.3s-4,10-0.3,13.9c0.1,0.1,0.2,0.2,0.3,0.3l25.1,25.1l17.1-17.1l17.1,17.1l25.1-25.1c3.8-3.8,3.8-10,0-13.9
	S79.7,1,75.9,4.9L75.9,4.9z"/>
</svg>
