<svg width="192" height="128" viewBox="0 0 192 128" fill="none" xmlns="http://www.w3.org/2000/svg">
<path d="M11.3259 119.096L6.80087 126.049L0.663029 116.468C0.0915951 115.575 0.346855 114.379 1.23156 113.805C1.54194 113.605 1.89872 113.498 2.26421 113.498C2.91686 113.498 3.5173 113.828 3.87118 114.379L6.80377 118.971L9.71896 114.388L9.73346 114.371C9.75957 114.33 9.78857 114.292 9.81468 114.258L9.85239 114.208C9.87269 114.185 9.893 114.159 9.922 114.13L9.95101 114.098C9.95101 114.098 9.97132 114.075 9.98002 114.066C9.99162 114.055 10.0032 114.043 10.0206 114.028L10.0612 113.991C10.0844 113.97 10.1047 113.953 10.1222 113.936C10.1309 113.93 10.1657 113.901 10.1744 113.895C10.2121 113.866 10.244 113.84 10.2846 113.814L10.302 113.802L10.3339 113.785C10.3687 113.765 10.4035 113.741 10.4412 113.724C10.4557 113.715 10.4702 113.709 10.4818 113.704L10.5195 113.686C10.5486 113.672 10.5776 113.66 10.6066 113.646C10.6356 113.634 10.6646 113.622 10.7052 113.608C10.7371 113.596 10.7574 113.59 10.7777 113.585C10.8125 113.573 10.8502 113.564 10.8879 113.556C10.9111 113.55 10.9343 113.544 10.9546 113.541C10.9895 113.535 11.0272 113.53 11.0707 113.521C11.0939 113.518 11.1171 113.515 11.1403 113.512C11.1751 113.509 11.207 113.506 11.2418 113.506C11.2708 113.506 11.2998 113.506 11.3288 113.506C11.3578 113.506 11.3868 113.506 11.4159 113.506C11.4507 113.506 11.4826 113.509 11.5174 113.512C11.5406 113.512 11.5638 113.518 11.5899 113.521C11.6305 113.527 11.6653 113.532 11.703 113.538C11.7262 113.544 11.7494 113.55 11.7755 113.556C11.8103 113.564 11.8452 113.573 11.8829 113.585C11.9061 113.59 11.9264 113.599 11.9467 113.605C11.9931 113.622 12.0221 113.631 12.054 113.646C12.0772 113.654 12.1004 113.666 12.1323 113.68L12.1642 113.695C12.1816 113.704 12.199 113.712 12.2164 113.721C12.2542 113.741 12.289 113.762 12.3209 113.782C12.3267 113.785 12.3383 113.794 12.3528 113.799L12.3673 113.811C12.4079 113.84 12.4427 113.863 12.4833 113.895C12.4833 113.895 12.5268 113.927 12.5326 113.933C12.5558 113.953 12.5761 113.97 12.6022 113.997L12.6457 114.037C12.6457 114.037 12.669 114.057 12.6777 114.066C12.6893 114.078 12.7009 114.092 12.7125 114.107L12.7444 114.145C12.7676 114.171 12.7879 114.191 12.8053 114.214L12.8459 114.266C12.8749 114.307 12.901 114.339 12.9271 114.379L12.9358 114.391L15.8568 118.977L18.7865 114.385C19.1404 113.834 19.7408 113.503 20.3935 113.503C20.759 113.503 21.1157 113.611 21.4261 113.811C22.3108 114.388 22.5661 115.58 21.9946 116.474L15.8568 126.055L11.323 119.102L11.3259 119.096Z" fill="white"/>
<path d="M28.8287 113.361C25.168 113.361 22.189 116.248 22.189 119.792C22.189 123.337 25.168 126.226 28.8287 126.226C32.4893 126.226 35.4683 123.34 35.4683 119.792C35.4683 116.245 32.4893 113.361 28.8287 113.361ZM28.8287 122.957C27.2014 122.957 25.8787 121.538 25.8787 119.795C25.8787 118.052 27.2014 116.633 28.8287 116.633C30.4559 116.633 31.7786 118.052 31.7786 119.795C31.7786 121.538 30.4559 122.957 28.8287 122.957Z" fill="white"/>
<path d="M36.559 118.08V125.965H40.4082V117.834C40.4082 117.503 40.6518 116.978 41.3016 116.978C41.3828 116.978 41.9745 116.978 42.5315 116.978H43.7991V113.622H41.0811C38.8969 113.622 36.559 115.415 36.559 118.083" fill="white"/>
<path d="M50.3633 116.996C51.2915 116.996 52.0486 116.236 52.0486 115.305C52.0486 114.374 51.2915 113.619 50.3633 113.619H48.5707V111.946C48.5707 110.951 47.7614 110.141 46.7635 110.141C45.7657 110.141 44.9593 110.951 44.9593 111.946V121.831L44.9651 122.095H44.9709C45.1247 124.636 47.2132 125.965 49.232 125.965H51.95V122.614H51.6889C51.5642 122.609 49.5743 122.606 49.4525 122.606C48.7824 122.606 48.5591 121.939 48.5591 121.634V116.999C49.0609 116.999 49.7048 116.999 50.3662 116.999" fill="white"/>
<path d="M77.4382 115.664C76.6057 114.614 75.0771 113.364 72.5129 113.364C69.9487 113.364 68.4229 114.614 67.5904 115.664C66.5085 117.033 66.1227 118.643 66.1227 119.696V125.964H69.9748V119.824C69.9748 118.423 70.8479 117.001 72.5129 116.996C74.1808 116.998 75.0539 118.42 75.0539 119.824V125.964H78.906V119.696C78.906 118.643 78.5202 117.03 77.4382 115.664Z" fill="white"/>
<path d="M58.7289 113.361C55.164 113.361 52.2633 116.248 52.2633 119.792C52.2633 123.337 55.164 126.226 58.7289 126.226C61.2235 126.226 63.5208 124.77 64.5854 122.519L64.7652 122.139H61.0987L61.0204 122.226C60.5186 122.783 59.6194 123.145 58.7289 123.145C57.3656 123.145 56.3329 122.327 55.9442 120.95H65.093L65.1249 120.723C65.1713 120.416 65.1916 120.103 65.1916 119.792C65.1916 116.245 62.2909 113.361 58.726 113.361M56.04 118.232C56.3619 117.153 57.4178 116.442 58.726 116.442C60.0342 116.442 61.0987 117.17 61.412 118.232H56.04Z" fill="white"/>
<path d="M0.805139 50.5356H10.7168L10.7168 10.8862H0.805139L0.805139 50.5356Z" fill="#2060FF"/>
<path d="M20.6284 50.5356H30.54L30.54 10.8862H20.6284L20.6284 50.5356Z" fill="#2060FF"/>
<path d="M20.6284 0.971359H0.802277V10.883H20.6284V0.971359Z" fill="#2060FF"/>
<path d="M40.4546 50.5356H50.3662L50.3662 10.8862H40.4546L40.4546 50.5356Z" fill="#2060FF"/>
<path d="M138.434 23.5882H118.611V33.4998H138.434V23.5882Z" fill="#2060FF"/>
<path d="M148.348 50.5381V40.6265V33.4995H138.437V40.6265H108.699V10.8829H98.7844V48.6932V50.5381H148.348Z" fill="#2060FF"/>
<path d="M148.348 10.883V0.971359L108.699 0.971359V10.883L148.348 10.883Z" fill="#2060FF"/>
<path d="M95.2978 30.709V20.7974H63.6745V10.8829H53.7629V22.7786V30.709V40.6207V50.5323H95.2978V40.6207H63.6745V30.709H95.2978Z" fill="#2060FF"/>
<path d="M95.2978 0.971359H63.6745V10.883H95.2978V0.971359Z" fill="#2060FF"/>
<path d="M191.786 86.2835V76.3718H160.163V66.4602H150.251V78.3559V86.2864V96.198V106.11H191.786V96.198H160.163V86.2864L191.786 86.2835Z" fill="#2060FF"/>
<path d="M191.786 56.5482H160.163V66.4598H191.786V56.5482Z" fill="#2060FF"/>
<path d="M40.4517 0.971359H30.54V10.883H40.4517V0.971359Z" fill="#2060FF"/>
<path d="M191.461 10.9382V1.02662H160.488V10.9382H150.576V50.4774H160.488V33.4997H181.547V50.4774H191.458V10.9382H191.461ZM181.55 23.5881H160.491V10.9382H181.55V23.5881Z" fill="#2060FF"/>
<path d="M98.7873 106.06H108.699V56.5979H98.7873V106.06Z" fill="#2060FF"/>
<path d="M148.348 66.4598V56.5482H110.735V66.4598H124.113V106.109H134.025V66.4598H148.348Z" fill="#2060FF"/>
<path d="M20.6284 56.5482H10.7168H0.802277V106.109H10.7168V66.4598H20.6284V96.1976H30.5401V56.5482H20.6284Z" fill="#2060FF"/>
<path d="M40.4517 56.5482V96.1976H30.54V106.109H40.4517H50.3662V56.5482H40.4517Z" fill="#2060FF"/>
<path d="M85.3861 66.4484V56.6035H53.76V63.771V106.057H63.6716V106.051H85.3861L95.2978 106.054V66.4484H85.3861ZM63.6716 66.5122H85.3861V96.1426H63.6745L63.6716 96.1397V66.5122Z" fill="#2060FF"/>
<path d="M85.3861 114.292V127.029H191.786V114.292H85.3861Z" fill="#EB0000"/>
</svg>
