<?xml version="1.0" encoding="utf-8"?>
<!-- Generator: Adobe Illustrator 26.4.1, SVG Export Plug-In . SVG Version: 6.00 Build 0)  -->
<svg version="1.1" id="Camada_1" xmlns="http://www.w3.org/2000/svg" xmlns:xlink="http://www.w3.org/1999/xlink" x="0px" y="0px"
	 width="21px" height="17px" viewBox="0 0 21 17" style="enable-background:new 0 0 21 17;" xml:space="preserve">
<path d="M16.9,10.9c0.3-0.3,0.7-0.3,1,0l2.3,2.3c0.1,0.1,0.2,0.3,0.2,0.5c0,0.2-0.1,0.4-0.2,0.5l-2.3,2.3c-0.3,0.3-0.7,0.3-1,0
	c0,0,0,0,0,0c-0.3-0.3-0.3-0.7,0-1l1.1-1.1H1.2c-0.4,0-0.7-0.3-0.7-0.7c0-0.4,0.3-0.7,0.7-0.7H18l-1.1-1.1
	C16.6,11.7,16.6,11.2,16.9,10.9 M3,0.9c0.3-0.3,0.7-0.3,1,0c0.3,0.3,0.3,0.7,0,1l0,0L2.9,3h16.8c0.4,0,0.7,0.3,0.7,0.7
	s-0.3,0.7-0.7,0.7H2.9L4,5.5c0.3,0.3,0.3,0.7,0,1c-0.3,0.3-0.7,0.3-1,0L0.7,4.2C0.5,4.1,0.5,3.9,0.5,3.7c0-0.2,0.1-0.4,0.2-0.5
	L3,0.9z"/>
</svg>
